<svg xmlns="http://www.w3.org/2000/svg" viewBox="0 0 48 48" width="48" height="48">
  <!-- House outline (dark navy) -->
  <polygon points="24,4 44,22 40,22 40,44 8,44 8,22 4,22" fill="none" stroke="#1C3557" stroke-width="3.5" stroke-linejoin="round" stroke-linecap="round"/>
  <!-- House roof filled -->
  <polygon points="24,6 42,22 6,22" fill="#1C3557"/>
  <!-- House body filled -->
  <rect x="9.5" y="22" width="29" height="21" fill="#1C3557"/>

  <!-- Wrench (orange) -->
  <g transform="translate(14, 26)">
    <path d="M5.5 0 C2.5 0 0 2.5 0 5.5 C0 8.5 2.5 11 5.5 11 C6.3 11 7.1 10.8 7.8 10.4 L13.5 16 C14.1 16.6 15 16.6 15.5 16 C16.1 15.4 16.1 14.5 15.5 14 L9.8 8.3 C10.2 7.5 10.5 6.5 10.5 5.5 C10.5 2.5 8 0 5 0 Z M5.5 2 C7 2 8.5 3.2 8.5 5.5 C8.5 6.2 8.3 6.8 8 7.3 L7.2 6.5 C7.4 6.2 7.5 5.8 7.5 5.5 C7.5 3.8 6.2 2.5 5.5 2.5 C4.8 2.5 3.5 3.5 3.5 5.5 C3.5 7 4.5 8 5.5 8 C5.8 8 6.1 7.9 6.4 7.8 L7.2 8.6 C6.7 8.9 6.1 9 5.5 9 C3.5 9 2 7.5 2 5.5 C2 3.5 3.5 2 5.5 2 Z" fill="#E8601C"/>
  </g>

  <!-- Gear (orange) -->
  <g transform="translate(28, 26)">
    <circle cx="5" cy="5.5" r="2.2" fill="#E8601C"/>
    <path d="M5 0 L6 2 L8 1 L8 3 L10 4 L9 6 L10 8 L8 8 L7 10 L5 9 L3 10 L2 8 L0 8 L1 6 L0 4 L2 3 L2 1 L4 2 Z" fill="none" stroke="#E8601C" stroke-width="1.2" stroke-linejoin="round"/>
  </g>
</svg>
